<svg xmlns="http://www.w3.org/2000/svg" version="1.1" xmlns:xlink="http://www.w3.org/1999/xlink" xmlns:svgjs="http://svgjs.dev/svgjs" width="1500" height="556" viewBox="0 0 1500 556"><g transform="matrix(1,0,0,1,-0.9090909090909918,0.3812677183898927)"><svg viewBox="0 0 396 147" data-background-color="#f1ede4" preserveAspectRatio="xMidYMid meet" height="556" width="1500" xmlns="http://www.w3.org/2000/svg" xmlns:xlink="http://www.w3.org/1999/xlink"><g id="tight-bounds" transform="matrix(1,0,0,1,0.2400000000000091,-0.10080279604912334)"><svg viewBox="0 0 395.52 147.20160559209825" height="147.20160559209825" width="395.52"><g><svg viewBox="0 0 395.52 147.20160559209825" height="147.20160559209825" width="395.52"><g transform="matrix(1,0,0,1,0,85.0864923960958)"><svg viewBox="0 0 395.52 62.11511319600244" height="62.11511319600244" width="395.52"><g id="textblocktransform"><svg viewBox="0 0 395.52 62.11511319600244" height="62.11511319600244" width="395.52" id="textblock"><g><svg viewBox="0 0 395.52 62.11511319600244" height="62.11511319600244" width="395.52"><g transform="matrix(1,0,0,1,0,0)"><svg width="395.52" viewBox="2 -38 245.13 38.5" height="62.11511319600244" data-palette-color="#864622"><path d="M14.9-2.6L14.9 0 2 0 2-2.6 6.2-3.55 6.2-32.1 2-33.1 2-35.7 14.9-35.7 14.9-33.1 10.7-32.1 10.7-3.55 14.9-2.6ZM34.1-27.3L34.1-27.3Q38.9-27.3 41.35-24.98 43.8-22.65 43.8-17.45L43.8-17.45 43.8 0 39.45 0 39.45-17.15Q39.45-20.4 38-22 36.55-23.6 33.45-23.6L33.45-23.6Q29-23.6 27.3-21.1 25.6-18.6 25.6-13.9L25.6-13.9 25.6 0 21.2 0 21.2-26.8 24.75-26.8 25.4-23.15 25.65-23.15Q26.55-24.55 27.87-25.48 29.2-26.4 30.8-26.85 32.4-27.3 34.1-27.3ZM76.99-31.75L76.99 0 72.49 0 72.49-31.75 61.34-31.75 61.34-35.7 88.09-35.7 88.09-31.75 76.99-31.75ZM97.29-38L97.29-26.85Q97.29-25.9 97.22-24.9 97.14-23.9 97.04-23.1L97.04-23.1 97.34-23.1Q98.19-24.5 99.49-25.4 100.79-26.3 102.39-26.78 103.99-27.25 105.69-27.25L105.69-27.25Q108.94-27.25 111.12-26.23 113.29-25.2 114.39-23.05 115.49-20.9 115.49-17.45L115.49-17.45 115.49 0 111.14 0 111.14-17.15Q111.14-20.4 109.69-22 108.24-23.6 105.14-23.6L105.14-23.6Q102.14-23.6 100.44-22.48 98.74-21.35 98.02-19.18 97.29-17 97.29-13.85L97.29-13.85 97.29 0 92.89 0 92.89-38 97.29-38ZM134.14-27.3L134.14-27.3Q137.59-27.3 140.06-25.8 142.54-24.3 143.86-21.58 145.19-18.85 145.19-15.2L145.19-15.2 145.19-12.55 126.84-12.55Q126.94-8 129.16-5.63 131.39-3.25 135.39-3.25L135.39-3.25Q137.94-3.25 139.91-3.73 141.89-4.2 143.99-5.1L143.99-5.1 143.99-1.25Q141.94-0.35 139.94 0.08 137.94 0.5 135.19 0.5L135.19 0.5Q131.39 0.5 128.46-1.05 125.54-2.6 123.91-5.68 122.29-8.75 122.29-13.2L122.29-13.2Q122.29-17.6 123.76-20.75 125.24-23.9 127.91-25.6 130.59-27.3 134.14-27.3ZM134.09-23.7L134.09-23.7Q130.94-23.7 129.11-21.68 127.29-19.65 126.94-16.05L126.94-16.05 140.59-16.05Q140.59-18.35 139.89-20.05 139.19-21.75 137.76-22.73 136.34-23.7 134.09-23.7ZM187.38-4L187.38 0 162.63 0 162.63-3.4 181.43-31.7 163.23-31.7 163.23-35.7 186.88-35.7 186.88-32.3 168.08-4 187.38-4ZM216.88-13.45L216.88-13.45Q216.88-10.1 216.01-7.53 215.13-4.95 213.51-3.15 211.88-1.35 209.56-0.43 207.23 0.5 204.38 0.5L204.38 0.5Q201.73 0.5 199.48-0.43 197.23-1.35 195.58-3.15 193.93-4.95 193.01-7.53 192.08-10.1 192.08-13.45L192.08-13.45Q192.08-17.9 193.58-20.98 195.08-24.05 197.88-25.68 200.68-27.3 204.53-27.3L204.53-27.3Q208.18-27.3 210.96-25.68 213.73-24.05 215.31-20.98 216.88-17.9 216.88-13.45ZM196.63-13.45L196.63-13.45Q196.63-10.3 197.46-7.98 198.28-5.65 200.03-4.4 201.78-3.15 204.48-3.15L204.48-3.15Q207.18-3.15 208.93-4.4 210.68-5.65 211.51-7.98 212.33-10.3 212.33-13.45L212.33-13.45Q212.33-16.65 211.48-18.9 210.63-21.15 208.91-22.38 207.18-23.6 204.43-23.6L204.43-23.6Q200.33-23.6 198.48-20.9 196.63-18.2 196.63-13.45ZM247.13-13.45L247.13-13.45Q247.13-10.1 246.25-7.53 245.38-4.95 243.75-3.15 242.13-1.35 239.8-0.43 237.48 0.5 234.63 0.5L234.63 0.5Q231.98 0.5 229.73-0.43 227.48-1.35 225.83-3.15 224.18-4.95 223.25-7.53 222.33-10.1 222.33-13.45L222.33-13.45Q222.33-17.9 223.83-20.98 225.33-24.05 228.13-25.68 230.93-27.3 234.78-27.3L234.78-27.3Q238.43-27.3 241.2-25.68 243.98-24.05 245.55-20.98 247.13-17.9 247.13-13.45ZM226.88-13.45L226.88-13.45Q226.88-10.3 227.7-7.98 228.53-5.65 230.28-4.4 232.03-3.15 234.73-3.15L234.73-3.15Q237.43-3.15 239.18-4.4 240.93-5.65 241.75-7.98 242.58-10.3 242.58-13.45L242.58-13.45Q242.58-16.65 241.73-18.9 240.88-21.15 239.15-22.38 237.43-23.6 234.68-23.6L234.68-23.6Q230.58-23.6 228.73-20.9 226.88-18.2 226.88-13.45Z" opacity="1" transform="matrix(1,0,0,1,0,0)" fill="#864622" class="wordmark-text-0" data-fill-palette-color="primary" id="text-0"></path></svg></g></svg></g></svg></g></svg></g><g transform="matrix(1,0,0,1,75.54432000000001,0)"><svg viewBox="0 0 244.43135999999996 70.42260493323633" height="70.42260493323633" width="244.43135999999996"><g><svg xmlns="http://www.w3.org/2000/svg" xmlns:xlink="http://www.w3.org/1999/xlink" version="1.1" x="0" y="0" viewBox="5.654999999999999 36.838 89.345 25.741" enable-background="new 0 0 100 100" xml:space="preserve" height="70.42260493323633" width="244.43135999999996" class="icon-icon-0" data-fill-palette-color="accent" id="icon-0"><g fill="#cf8e56" data-fill-palette-color="accent"><g fill="#cf8e56" data-fill-palette-color="accent"><g fill="#cf8e56" data-fill-palette-color="accent"><path fill="#cf8e56" d="M18.531 36.838c-7.111 0-12.876 5.76-12.876 12.869 0 7.106 5.765 12.872 12.876 12.872 7.102 0 12.871-5.766 12.871-12.872C31.402 42.598 25.633 36.838 18.531 36.838z" data-fill-palette-color="accent"></path></g><g fill="#cf8e56" data-fill-palette-color="accent"><path fill="#cf8e56" d="M50.324 36.838c-7.105 0-12.867 5.76-12.867 12.869 0 7.106 5.762 12.872 12.867 12.872 7.108 0 12.872-5.766 12.872-12.872C63.196 42.598 57.433 36.838 50.324 36.838z" data-fill-palette-color="accent"></path></g><g fill="#cf8e56" data-fill-palette-color="accent"><path fill="#cf8e56" d="M82.124 36.838c-7.103 0-12.871 5.76-12.871 12.869 0 7.106 5.769 12.872 12.871 12.872C89.23 62.579 95 56.813 95 49.707 95 42.598 89.23 36.838 82.124 36.838z" data-fill-palette-color="accent"></path></g></g></g></svg></g></svg></g><g></g></svg></g><defs></defs></svg><rect width="395.52" height="147.20160559209825" fill="none" stroke="none" visibility="hidden"></rect></g></svg></g></svg>